<svg xmlns="http://www.w3.org/2000/svg" xmlns:xlink="http://www.w3.org/1999/xlink" aria-hidden="true" role="img" class="iconify iconify--logos" width="31.88" height="32" preserveAspectRatio="xMidYMid meet" viewBox="0 0 256 257"><defs><linearGradient id="IconifyId1813088fe1fbc01fb466" x1="-.828%" x2="57.636%" y1="7.652%" y2="78.411%"><stop offset="0%" stop-color="#41D1FF"></stop><stop offset="100%" stop-color="#BD34FE"></stop></linearGradient><linearGradient id="IconifyId1813088fe1fbc01fb467" x1="43.376%" x2="50.316%" y1="2.242%" y2="89.03%"><stop offset="0%" stop-color="#FFBD4F"></stop><stop offset="100%" stop-color="#FF980E"></stop></linearGradient></defs><path fill="url(#IconifyId1813088fe1fbc01fb466)" d="M255.153 37.938L134.897 254.154c-2.483 4.44-8.862 4.466-11.382.048L.875 37.958c-2.746-4.814 1.371-10.646 6.827-9.67l120.505 21.517a6.537 6.537 0 0 0 2.322-.004l117.477-21.483c5.438-.991 9.574 4.796 6.828 9.62z"></path><path fill="url(#IconifyId1813088fe1fbc01fb467)" d="M185.432.063L96.44 17.501a3.268 3.268 0 0 0-2.634 3.014l-5.474 92.456a3.268 3.268 0 0 0 3.997 3.378l24.777-5.718c2.318-.535 4.413 1.507 3.936 3.838l-7.341 36.523c-.495 2.465 1.782 4.536 4.172 3.79l15.258-4.65c2.392-.747 4.672 1.327 4.172 3.79l-11.65 56.584c-.727 3.527 3.765 5.649 5.733 2.71l1.586-2.453l72.24-144.377c1.215-2.43-.88-5.191-3.514-4.653l-25.509 4.922c-2.396.462-4.435-1.773-3.759-4.114l16.646-57.704c.677-2.34-1.37-4.569-3.766-4.113z"></path></svg>